<?xml version="1.0" encoding="utf-8"?>
<!-- Generator: Adobe Illustrator 25.2.0, SVG Export Plug-In . SVG Version: 6.00 Build 0)  -->
<svg version="1.1" id="App_Icon_Kit_A" xmlns="http://www.w3.org/2000/svg" xmlns:xlink="http://www.w3.org/1999/xlink" x="0px"
	 y="0px" viewBox="0 0 92 71" style="enable-background:new 0 0 92 71;" xml:space="preserve">
<style type="text/css">
	.st0{opacity:0.58;}
	.st1{fill:#26ABE2;}
</style>
<g id="Notifications_and_Activity_-_Preview">
</g>
<g id="Settings_Icon_-_Preview_Sizes">
</g>
<g id="Spotlight_Icon_-_Preview_Sizes">
</g>
<g id="App_Icon_-_Preview_Sizes">
</g>
<g id="App_Icon_and_Badge_-_Main">
	<g class="st0">
		<path d="M17.89,65.2c-0.55,0.14-1.22,0.23-1.79,0.23c-1.44,0-2.13-0.85-2.13-2.24v-0.69c0-1.39,0.7-2.24,2.13-2.24
			c0.21,0,0.53,0.02,0.86,0.06v-1.58c0-0.1,0.08-0.18,0.18-0.18h0.82c0.1,0,0.18,0.08,0.18,0.18v6.21
			C18.13,65.1,18.09,65.15,17.89,65.2z M16.95,61.3c-0.25-0.04-0.64-0.06-0.86-0.06c-0.77,0-0.95,0.54-0.95,1.28v0.69
			c0,0.73,0.19,1.28,0.95,1.28c0.32,0,0.69-0.03,0.86-0.06V61.3z"/>
		<path d="M20.02,59.67h-0.86c-0.1,0-0.19-0.08-0.19-0.18V58.7c0-0.1,0.09-0.18,0.19-0.18h0.86c0.1,0,0.18,0.08,0.18,0.18v0.78
			C20.2,59.59,20.12,59.67,20.02,59.67z M19.99,65.36h-0.82c-0.1,0-0.18-0.09-0.18-0.19v-4.66c0-0.1,0.08-0.18,0.18-0.18h0.82
			c0.1,0,0.18,0.08,0.18,0.18v4.66C20.17,65.27,20.09,65.36,19.99,65.36z"/>
		<path d="M25.27,61.15l-0.29,0.12c0.14,0.21,0.22,0.4,0.22,0.71v0.06c0,1.11-0.77,1.62-2.11,1.62c-0.47,0-0.79-0.08-0.97-0.15
			c-0.11,0.07-0.15,0.15-0.15,0.23c0,0.18,0.1,0.25,0.3,0.29l1.05,0.25c1.21,0.29,2,0.47,2,1.43v0.06c0,0.91-0.67,1.4-2.19,1.4
			c-1.44,0-2.21-0.54-2.21-1.48v-0.08c0-0.37,0.17-0.72,0.45-0.98c-0.25-0.19-0.4-0.5-0.4-0.82V63.8c0-0.28,0.12-0.55,0.36-0.72
			c-0.27-0.28-0.37-0.6-0.37-1.04v-0.06c0-0.89,0.58-1.64,2.12-1.64h2.09c0.13,0,0.24,0.11,0.24,0.24v0.37
			C25.41,61.08,25.38,61.1,25.27,61.15z M24.14,65.71c0-0.2-0.12-0.31-1.05-0.54l-0.79-0.19c-0.13,0.19-0.22,0.3-0.22,0.62v0.08
			c0,0.37,0.22,0.59,1.06,0.59c0.86,0,1.01-0.19,1.01-0.51V65.71z M24.04,61.99c0-0.43-0.19-0.76-0.95-0.76
			c-0.76,0-0.96,0.34-0.96,0.76v0.07c0,0.33,0.13,0.7,0.96,0.7c0.74,0,0.95-0.26,0.95-0.7V61.99z"/>
		<path d="M26.97,59.67h-0.86c-0.1,0-0.19-0.08-0.19-0.18V58.7c0-0.1,0.09-0.18,0.19-0.18h0.86c0.1,0,0.18,0.08,0.18,0.18v0.78
			C27.15,59.59,27.07,59.67,26.97,59.67z M26.95,65.36h-0.82c-0.1,0-0.18-0.09-0.18-0.19v-4.66c0-0.1,0.08-0.18,0.18-0.18h0.82
			c0.1,0,0.18,0.08,0.18,0.18v4.66C27.12,65.27,27.04,65.36,26.95,65.36z"/>
		<path d="M30.63,65.37c-0.21,0.04-0.41,0.06-0.61,0.06c-1.01,0-1.42-0.22-1.42-1.42v-2.8l-0.84-0.12c-0.1-0.02-0.18-0.08-0.18-0.18
			v-0.4c0-0.1,0.08-0.18,0.18-0.18h0.84V59.6c0-0.1,0.08-0.16,0.18-0.18l0.83-0.14c0.01,0,0.03,0,0.04,0c0.08,0,0.14,0.04,0.14,0.13
			v0.92h0.8c0.1,0,0.18,0.08,0.18,0.18v0.53c0,0.1-0.08,0.18-0.18,0.18h-0.8v2.8c0,0.45,0.03,0.5,0.35,0.5h0.47
			c0.12,0,0.19,0.04,0.19,0.13v0.56C30.8,65.3,30.75,65.36,30.63,65.37z"/>
		<path d="M34.83,65.36h-0.76c-0.1,0-0.18-0.08-0.18-0.18v-0.14c-0.41,0.25-0.83,0.39-1.26,0.39c-0.74,0-1.54-0.29-1.54-1.49v-0.04
			c0-1.02,0.62-1.54,2.18-1.54h0.56v-0.39c0-0.58-0.26-0.72-0.78-0.72c-0.57,0-1.16,0.04-1.45,0.07c-0.02,0-0.04,0-0.04,0
			c-0.09,0-0.16-0.03-0.16-0.15V60.6c0-0.1,0.05-0.16,0.17-0.19c0.36-0.07,0.87-0.14,1.49-0.14c1.27,0,1.96,0.56,1.96,1.7v3.21
			C35.01,65.28,34.93,65.36,34.83,65.36z M33.83,63.15h-0.56c-0.81,0-0.99,0.26-0.99,0.76v0.04c0,0.44,0.2,0.55,0.64,0.55
			c0.32,0,0.65-0.11,0.91-0.25V63.15z"/>
		<path d="M36.9,65.36h-0.83c-0.1,0-0.18-0.09-0.18-0.19v-6.42c0-0.1,0.08-0.18,0.18-0.18h0.83c0.1,0,0.17,0.08,0.17,0.18v6.42
			C37.07,65.27,37,65.36,36.9,65.36z"/>
		<path d="M40.91,59.67h-0.86c-0.1,0-0.19-0.08-0.19-0.18V58.7c0-0.1,0.09-0.18,0.19-0.18h0.86c0.1,0,0.18,0.08,0.18,0.18v0.78
			C41.09,59.59,41.01,59.67,40.91,59.67z M40.88,65.36h-0.82c-0.1,0-0.18-0.09-0.18-0.19v-4.66c0-0.1,0.08-0.18,0.18-0.18h0.82
			c0.1,0,0.18,0.08,0.18,0.18v4.66C41.06,65.27,40.98,65.36,40.88,65.36z"/>
		<path d="M45.87,65.36h-0.82c-0.1,0-0.18-0.09-0.18-0.19v-2.91c0-0.78-0.07-1-0.76-1c-0.3,0-0.63,0.12-1.01,0.32v3.58
			c0,0.1-0.08,0.19-0.18,0.19h-0.82c-0.1,0-0.18-0.09-0.18-0.19v-4.66c0-0.1,0.08-0.18,0.18-0.18h0.78c0.1,0,0.18,0.08,0.18,0.18
			v0.19c0.52-0.33,0.86-0.43,1.44-0.43c1.28,0,1.54,0.86,1.54,2v2.91C46.05,65.27,45.97,65.36,45.87,65.36z"/>
		<path d="M50.83,65.36h-0.82c-0.1,0-0.18-0.09-0.18-0.19v-2.91c0-0.78-0.07-1-0.76-1c-0.3,0-0.63,0.12-1.01,0.32v3.58
			c0,0.1-0.08,0.19-0.18,0.19h-0.82c-0.1,0-0.18-0.09-0.18-0.19v-4.66c0-0.1,0.08-0.18,0.18-0.18h0.78c0.1,0,0.18,0.08,0.18,0.18
			v0.19c0.52-0.33,0.86-0.43,1.44-0.43c1.28,0,1.54,0.86,1.54,2v2.91C51.01,65.27,50.93,65.36,50.83,65.36z"/>
		<path d="M53.82,65.44c-1.4,0-2.13-0.95-2.13-2.22v-0.72c0-1.28,0.73-2.22,2.13-2.22c1.4,0,2.13,0.94,2.13,2.22v0.72
			C55.96,64.49,55.22,65.44,53.82,65.44z M54.78,62.49c0-0.73-0.33-1.2-0.95-1.2c-0.62,0-0.95,0.47-0.95,1.2v0.72
			c0,0.73,0.33,1.2,0.95,1.2c0.62,0,0.95-0.47,0.95-1.2V62.49z"/>
		<path d="M60.53,60.54l-1.12,4.06c-0.18,0.66-0.66,0.84-1.11,0.84c-0.45,0-0.93-0.18-1.11-0.84l-1.12-4.06
			c-0.01-0.02-0.01-0.04-0.01-0.06c0-0.08,0.06-0.14,0.14-0.14h0.89c0.08,0,0.15,0.06,0.18,0.18l0.86,3.74
			c0.04,0.17,0.1,0.22,0.17,0.22c0.07,0,0.13-0.05,0.17-0.22l0.86-3.74c0.03-0.12,0.11-0.18,0.19-0.18h0.89
			c0.08,0,0.14,0.06,0.14,0.14C60.54,60.49,60.54,60.52,60.53,60.54z"/>
		<path d="M64.36,65.36h-0.76c-0.1,0-0.18-0.08-0.18-0.18v-0.14c-0.41,0.25-0.83,0.39-1.26,0.39c-0.74,0-1.54-0.29-1.54-1.49v-0.04
			c0-1.02,0.62-1.54,2.18-1.54h0.56v-0.39c0-0.58-0.26-0.72-0.78-0.72c-0.57,0-1.16,0.04-1.45,0.07c-0.02,0-0.04,0-0.04,0
			c-0.09,0-0.16-0.03-0.16-0.15V60.6c0-0.1,0.05-0.16,0.17-0.19c0.36-0.07,0.87-0.14,1.49-0.14c1.27,0,1.96,0.56,1.96,1.7v3.21
			C64.54,65.28,64.46,65.36,64.36,65.36z M63.37,63.15H62.8c-0.81,0-0.99,0.26-0.99,0.76v0.04c0,0.44,0.2,0.55,0.64,0.55
			c0.32,0,0.65-0.11,0.91-0.25V63.15z"/>
		<path d="M67.77,65.37c-0.21,0.04-0.41,0.06-0.61,0.06c-1.01,0-1.42-0.22-1.42-1.42v-2.8l-0.84-0.12c-0.1-0.02-0.18-0.08-0.18-0.18
			v-0.4c0-0.1,0.08-0.18,0.18-0.18h0.84V59.6c0-0.1,0.08-0.16,0.18-0.18l0.83-0.14c0.01,0,0.03,0,0.04,0c0.08,0,0.14,0.04,0.14,0.13
			v0.92h0.8c0.1,0,0.18,0.08,0.18,0.18v0.53c0,0.1-0.08,0.18-0.18,0.18h-0.8v2.8c0,0.45,0.03,0.5,0.35,0.5h0.47
			c0.12,0,0.19,0.04,0.19,0.13v0.56C67.94,65.3,67.89,65.36,67.77,65.37z"/>
		<path d="M69.47,59.67h-0.86c-0.1,0-0.19-0.08-0.19-0.18V58.7c0-0.1,0.09-0.18,0.19-0.18h0.86c0.1,0,0.18,0.08,0.18,0.18v0.78
			C69.65,59.59,69.57,59.67,69.47,59.67z M69.45,65.36h-0.82c-0.1,0-0.18-0.09-0.18-0.19v-4.66c0-0.1,0.08-0.18,0.18-0.18h0.82
			c0.1,0,0.18,0.08,0.18,0.18v4.66C69.63,65.27,69.55,65.36,69.45,65.36z"/>
		<path d="M72.47,65.44c-1.4,0-2.13-0.95-2.13-2.22v-0.72c0-1.28,0.73-2.22,2.13-2.22c1.4,0,2.13,0.94,2.13,2.22v0.72
			C74.6,64.49,73.87,65.44,72.47,65.44z M73.42,62.49c0-0.73-0.33-1.2-0.95-1.2c-0.62,0-0.95,0.47-0.95,1.2v0.72
			c0,0.73,0.33,1.2,0.95,1.2c0.62,0,0.95-0.47,0.95-1.2V62.49z"/>
		<path d="M79.23,65.36h-0.82c-0.1,0-0.18-0.09-0.18-0.19v-2.91c0-0.78-0.07-1-0.76-1c-0.3,0-0.63,0.12-1.01,0.32v3.58
			c0,0.1-0.08,0.19-0.18,0.19h-0.82c-0.1,0-0.18-0.09-0.18-0.19v-4.66c0-0.1,0.08-0.18,0.18-0.18h0.78c0.1,0,0.18,0.08,0.18,0.18
			v0.19c0.52-0.33,0.86-0.43,1.44-0.43c1.28,0,1.54,0.86,1.54,2v2.91C79.41,65.27,79.33,65.36,79.23,65.36z"/>
	</g>
	<path d="M85.56,6.86c0,0.28-0.03,0.48-0.08,0.59L75.26,46.01c-0.43,1.58-1,2.88-1.7,3.9c-0.7,1.02-1.51,1.82-2.43,2.42
		c-0.92,0.59-1.89,1.02-2.92,1.27c-1.03,0.25-2.05,0.38-3.08,0.38c-1.03,0-2.05-0.13-3.08-0.38c-1.03-0.25-1.99-0.68-2.88-1.27
		c-0.89-0.59-1.7-1.4-2.43-2.42c-0.73-1.02-1.28-2.32-1.66-3.9L44.86,7.45c-0.05-0.11-0.08-0.31-0.08-0.59c0-0.9,0.43-1.36,1.3-1.36
		h8.11c0.81,0,1.35,0.57,1.62,1.7l7.78,35.51c0.16,0.79,0.38,1.34,0.65,1.65c0.27,0.31,0.57,0.47,0.89,0.47
		c0.32,0,0.62-0.16,0.89-0.47c0.27-0.31,0.49-0.86,0.65-1.65L74.45,7.2c0.27-1.13,0.84-1.7,1.7-1.7h8.11
		C85.12,5.5,85.56,5.95,85.56,6.86z"/>
	<circle class="st1" cx="85.75" cy="48.81" r="5.07"/>
	<path d="M43.98,18.44c-0.81-2.54-1.99-4.74-3.56-6.59c-1.56-1.86-3.51-3.29-5.83-4.3c-2.32-1.01-4.99-1.52-8.01-1.52
		c-2.97,0-5.63,0.49-7.98,1.47c-2.35,0.98-4.31,2.38-5.9,4.18c-1.59,1.8-2.8,3.99-3.64,6.55c-0.37,1.12-0.64,2.31-0.84,3.55h10.42
		c0.38-1.54,1.02-2.83,1.94-3.84c1.57-1.72,3.58-2.58,6.03-2.58c2.45,0,4.44,0.87,5.96,2.62c1.51,1.75,2.27,4.23,2.27,7.45v0.33
		H18.24v-0.01H7.85c-0.01,0.36-0.04,0.71-0.04,1.07v6.06c0,4.04,0.61,7.39,1.84,10.04c1.23,2.65,2.78,4.75,4.66,6.31
		c1.88,1.56,3.93,2.65,6.15,3.28c2.22,0.63,4.32,0.94,6.31,0.94c1.78,0,3.33-0.03,4.66-0.08c1.33-0.05,2.56-0.14,3.68-0.25
		c1.12-0.11,2.23-0.25,3.33-0.41c1.1-0.16,2.27-0.38,3.53-0.66c0.73-0.11,1.19-0.33,1.37-0.66c0.18-0.33,0.27-0.82,0.27-1.47v-5.41
		c0-0.44-0.13-0.75-0.39-0.94c-0.26-0.19-0.6-0.29-1.02-0.29h-0.23c-1.67,0.16-3.77,0.34-6.31,0.53c-2.53,0.19-5.24,0.29-8.11,0.29
		c-1.88,0-3.43-0.31-4.66-0.94c-1.23-0.63-2.19-1.45-2.9-2.46c-0.71-1.01-1.19-2.13-1.45-3.36c-0.26-1.23-0.39-2.44-0.39-3.65v-0.25
		h25.47c1.04,0,1.56-0.68,1.56-2.05v-4.59C45.19,23.77,44.79,20.97,43.98,18.44z"/>
</g>
</svg>
